
<svg width="38px" height="38px" viewBox="0 0 38 38" version="1.1" xmlns="http://www.w3.org/2000/svg" xmlns:xlink="http://www.w3.org/1999/xlink">
    <!-- Generator: Sketch 50.2 (55047) - http://www.bohemiancoding.com/sketch -->
    <desc>Created with Sketch.</desc>
    <defs></defs>
    <g id="Symbols" stroke="none" stroke-width="1" fill="none" fill-rule="evenodd">
        <g id="Icon-Row---Blue" transform="translate(-237.000000, -17.000000)" fill="#1A97B4" fill-rule="nonzero">
            <g id="Icon-Row">
                <g id="logo-facebook" transform="translate(237.000000, 17.000000)">
                    <path d="M35.9020833,0 L2.09791667,0 C0.940104167,0 0,0.940104167 0,2.09791667 L0,35.9020833 C0,37.0598958 0.940104167,38 2.09791667,38 L19,38 L19,22.9583333 L14.4578125,22.9583333 L14.4578125,17.4166667 L19,17.4166667 L19,13.3197917 C19,8.41145833 22.4041667,5.73958333 26.7880208,5.73958333 C28.8859375,5.73958333 31.1421875,5.89791667 31.6666667,5.9671875 L31.6666667,11.0932292 L28.1734375,11.0932292 C25.7885417,11.0932292 25.3333333,12.2213542 25.3333333,13.8838542 L25.3333333,17.4166667 L31.0135417,17.4166667 L30.2713542,22.9583333 L25.3333333,22.9583333 L25.3333333,38 L35.9020833,38 C37.0598958,38 38,37.0598958 38,35.9020833 L38,2.09791667 C38,0.940104167 37.0598958,0 35.9020833,0 Z" id="Shape"></path>
                </g>
            </g>
        </g>
    </g>
</svg>