
<svg width="32px" height="32px" viewBox="0 0 32 32" version="1.1" xmlns="http://www.w3.org/2000/svg" xmlns:xlink="http://www.w3.org/1999/xlink">
    <!-- Generator: Sketch 50.2 (55047) - http://www.bohemiancoding.com/sketch -->
    <desc>Created with Sketch.</desc>
    <defs></defs>
    <g id="Symbols" stroke="none" stroke-width="1" fill="none" fill-rule="evenodd">
        <g id="Mobile-Nav-Links" transform="translate(0.000000, -66.000000)" fill="#FFECD4" fill-rule="nonzero">
            <g id="Icons" transform="translate(0.000000, 5.000000)">
                <g id="md-information-circle-outline" transform="translate(0.000000, 61.000000)">
                    <path d="M16,3.23076923 C19.4076923,3.23076923 22.6153846,4.56153846 25.0307692,6.96923077 C27.4384615,9.38461538 28.7692308,12.5923077 28.7692308,16 C28.7692308,19.4076923 27.4384615,22.6153846 25.0307692,25.0307692 C22.6153846,27.4384615 19.4076923,28.7692308 16,28.7692308 C12.5923077,28.7692308 9.38461538,27.4384615 6.96923077,25.0307692 C4.56153846,22.6153846 3.23076923,19.4076923 3.23076923,16 C3.23076923,12.5923077 4.56153846,9.38461538 6.96923077,6.96923077 C9.38461538,4.56153846 12.5923077,3.23076923 16,3.23076923 Z M16,0 C7.16153846,0 0,7.16153846 0,16 C0,24.8384615 7.16153846,32 16,32 C24.8384615,32 32,24.8384615 32,16 C32,7.16153846 24.8384615,0 16,0 Z" id="Shape"></path>
                    <path d="M17.6153846,24 L14.3846154,24 L14.3846154,14.3846154 L17.6153846,14.3846154 L17.6153846,24 Z M17.6153846,11.2307692 L14.3846154,11.2307692 L14.3846154,8 L17.6153846,8 L17.6153846,11.2307692 Z" id="Shape"></path>
                </g>
            </g>
        </g>
    </g>
</svg>