
<svg width="38px" height="38px" viewBox="0 0 38 38" version="1.1" xmlns="http://www.w3.org/2000/svg" xmlns:xlink="http://www.w3.org/1999/xlink">
    <!-- Generator: Sketch 50.2 (55047) - http://www.bohemiancoding.com/sketch -->
    <desc>Created with Sketch.</desc>
    <defs></defs>
    <g id="Symbols" stroke="none" stroke-width="1" fill="none" fill-rule="evenodd">
        <g id="Icon-Row---Blue" transform="translate(-98.000000, -17.000000)" fill="#FFECD4" fill-rule="nonzero">
            <g id="Icon-Row">
                <g id="logo-codepen" transform="translate(98.000000, 17.000000)">
                    <path d="M17.7479509,23.066 C16.448317,22.1875045 15.1403705,21.321308 13.8409062,20.4424732 C13.6687188,20.3260134 13.5499687,20.3176161 13.3742188,20.4400134 L10.077125,22.658433 C12.7203304,24.4205134 17.9821429,27.9331384 17.9821429,27.9331384 L17.9821429,23.370933 C17.981125,23.2671116 17.8504152,23.1351295 17.7479509,23.066 Z M13.8336964,17.6993482 C15.1445268,16.8375625 16.4505223,15.9682277 17.7447277,15.0817589 C17.8707723,14.9954107 17.9801071,14.7841205 17.9821429,14.6293214 L17.9821429,10.2435446 C17.9821429,10.2435446 12.7204152,13.7317411 10.0715268,15.4975536 C11.2335804,16.274433 12.3337991,17.0169598 13.446317,17.7404866 C13.5328348,17.7966384 13.7343705,17.7645759 13.8336964,17.6993482 Z M20.1737589,15.0434196 C21.5146447,15.9514709 22.8612685,16.8510202 24.2135491,17.7420134 C24.2912455,17.7932455 24.4612277,17.7930759 24.5391786,17.7420134 L27.9109152,15.4970446 L20.0178571,10.219625 L20.0178571,14.7448482 C20.0187054,14.8467187 20.0861384,14.9841295 20.1737589,15.0434196 Z M19.1788884,16.825942 C19.0762545,16.7579152 18.8725982,16.7811562 18.7765804,16.840192 C18.3679955,17.091433 17.9739152,17.3663393 17.5751696,17.6336964 C16.8755625,18.1027589 15.4244375,19.0776116 15.4244375,19.0776116 L18.7190714,21.2715179 C18.8673393,21.3696562 19.0953393,21.375 19.2500536,21.280933 L22.5592768,19.0761696 C22.5593616,19.0761696 19.6686473,17.1506384 19.1788884,16.825942 Z M9.24553571,17.3982321 L9.24553571,20.7579241 L11.7581161,19.0752366 L9.24553571,17.3982321 Z" id="Shape"></path>
                    <path d="M19,0 C8.50657143,0 0,8.50657143 0,19 C0,29.4934286 8.50657143,38 19,38 C29.4934286,38 38,29.4934286 38,19 C38,8.50657143 29.4934286,0 19,0 Z M30.7901786,22.4781875 C30.7901786,22.9688795 30.5652321,23.3152054 30.1530848,23.5888393 C26.6627952,25.9058126 23.1770237,28.2295849 19.6957902,30.5601429 C19.1992455,30.8924732 18.7479955,30.8785625 18.255183,30.5485223 C14.7959107,28.2317098 11.3236607,25.9218527 7.85395536,23.6206473 C7.42051786,23.3331875 7.20982143,22.9796518 7.20982143,22.4560491 L7.20982143,15.6933214 C7.20982143,15.172433 7.42365625,14.8169464 7.8565,14.5299107 C11.3262054,12.2287054 14.806683,9.91876339 18.266125,7.60203571 C18.7596161,7.27157143 19.2071339,7.26215625 19.7028304,7.59397768 C23.1836959,9.92422438 26.6687596,12.2481939 30.1580045,14.565875 C30.5547991,14.8293304 30.7901786,15.1547902 30.7901786,15.6397143 L30.7901786,22.4781875 Z" id="Shape"></path>
                    <path d="M24.1102366,20.4618125 C22.8331354,21.3285565 21.5498676,22.1861795 20.2605312,23.0346161 C20.055942,23.1693125 20.015567,23.3160536 20.0178571,23.5595759 L20.0178571,27.914817 L27.909558,22.6555491 L24.6416429,20.4602009 C24.4427366,20.3241473 24.3082946,20.3272857 24.1102366,20.4618125 Z M28.6696429,20.7537679 L28.6696429,17.3934821 L26.1597768,19.0791384 L28.6696429,20.7537679 Z" id="Shape"></path>
                </g>
            </g>
        </g>
    </g>
</svg>