
<svg width="38px" height="38px" viewBox="0 0 38 38" version="1.1" xmlns="http://www.w3.org/2000/svg" xmlns:xlink="http://www.w3.org/1999/xlink">
    <!-- Generator: Sketch 50.2 (55047) - http://www.bohemiancoding.com/sketch -->
    <desc>Created with Sketch.</desc>
    <defs></defs>
    <g id="Symbols" stroke="none" stroke-width="1" fill="none" fill-rule="evenodd">
        <g id="Icon-Row---Blue" transform="translate(-29.000000, -17.000000)" fill="#FFECD4" fill-rule="nonzero">
            <g id="Icon-Row">
                <g id="logo-github" transform="translate(29.000000, 17.000000)">
                    <path d="M19,0 C8.50758929,0 0,8.728125 0,19.4834821 C0,28.0928571 5.44553571,35.3875 12.9946429,37.9660714 C13.1133929,37.9915179 13.2151786,38 13.3169643,38 C14.0209821,38 14.2924107,37.4825893 14.2924107,37.0330357 C14.2924107,36.5665179 14.2754464,35.3450893 14.2669643,33.7165179 C13.5544643,33.8776786 12.9183036,33.9455357 12.35,33.9455357 C8.69419643,33.9455357 7.86294643,31.1040179 7.86294643,31.1040179 C6.99776786,28.85625 5.75089286,28.2540179 5.75089286,28.2540179 C4.096875,27.0919643 5.74241071,27.0580357 5.86964286,27.0580357 L5.878125,27.0580357 C7.78660714,27.2276786 8.7875,29.0767857 8.7875,29.0767857 C9.7375,30.7392857 11.0098214,31.2058036 12.1464286,31.2058036 C13.0370536,31.2058036 13.8428571,30.9174107 14.3178571,30.696875 C14.4875,29.4415179 14.9794643,28.5848214 15.5223214,28.0928571 C11.3066964,27.6008929 6.87053571,25.9299107 6.87053571,18.465625 C6.87053571,16.3366071 7.60848214,14.5977679 8.82142857,13.240625 C8.62633929,12.7486607 7.97321429,10.7638393 9.00803571,8.08348214 C9.00803571,8.08348214 9.14375,8.04107143 9.43214286,8.04107143 C10.1191964,8.04107143 11.6714286,8.30401786 14.2330357,10.0852679 C15.7513393,9.65267857 17.3714286,9.440625 18.9915179,9.43214286 C20.603125,9.440625 22.2316964,9.65267857 23.75,10.0852679 C26.3116071,8.30401786 27.8638393,8.04107143 28.5508929,8.04107143 C28.8392857,8.04107143 28.975,8.08348214 28.975,8.08348214 C30.0098214,10.7638393 29.3566964,12.7486607 29.1616071,13.240625 C30.3745536,14.60625 31.1125,16.3450893 31.1125,18.465625 C31.1125,25.946875 26.6678571,27.5924107 22.4352679,28.0758929 C23.1138393,28.678125 23.7245536,29.865625 23.7245536,31.6808036 C23.7245536,34.2848214 23.6991071,36.3883929 23.6991071,37.0245536 C23.6991071,37.4825893 23.9620536,38 24.6660714,38 C24.7678571,38 24.8866071,37.9915179 25.0053571,37.9660714 C32.5629464,35.3875 38,28.084375 38,19.4834821 C38,8.728125 29.4924107,0 19,0 Z" id="Shape"></path>
                </g>
            </g>
        </g>
    </g>
</svg>