
<svg width="32px" height="32px" viewBox="0 0 32 32" version="1.1" xmlns="http://www.w3.org/2000/svg" xmlns:xlink="http://www.w3.org/1999/xlink">
    <!-- Generator: Sketch 50.2 (55047) - http://www.bohemiancoding.com/sketch -->
    <desc>Created with Sketch.</desc>
    <defs></defs>
    <g id="Symbols" stroke="none" stroke-width="1" fill="none" fill-rule="evenodd">
        <g id="Mobile-Nav-Links" transform="translate(-1.000000, -5.000000)" fill="#FFECD4" fill-rule="nonzero">
            <g id="Icons" transform="translate(0.000000, 5.000000)">
                <g id="ios-home" transform="translate(1.000000, 0.000000)">
                    <path d="M16.1913876,4.29473684 C16.076555,4.20287081 15.923445,4.20287081 15.8086124,4.29473684 L3.86602871,13.8488038 C3.79712919,13.9100478 3.75119617,13.9942584 3.75119617,14.0861244 L3.75119617,31.6937799 C3.75119617,31.7779904 3.82009569,31.84689 3.90430622,31.84689 L12.1722488,31.84689 C12.2564593,31.84689 12.3253589,31.7779904 12.3253589,31.6937799 L12.3253589,20.9760766 C12.3253589,20.891866 12.3942584,20.8229665 12.4784689,20.8229665 L19.5215311,20.8229665 C19.6057416,20.8229665 19.6746411,20.891866 19.6746411,20.9760766 L19.6746411,31.6937799 C19.6746411,31.7779904 19.7435407,31.84689 19.8277512,31.84689 L28.0956938,31.84689 C28.1799043,31.84689 28.2488038,31.7779904 28.2488038,31.6937799 L28.2488038,14.0861244 C28.2488038,13.9942584 28.2028708,13.9023923 28.1339713,13.8488038 L16.1913876,4.29473684 Z" id="Shape"></path>
                    <path d="M31.5177033,11.9578947 L17.0488038,0.367464115 C16.7578947,0.130143541 16.3827751,0 16,0 C15.6172249,0 15.2421053,0.130143541 14.9511962,0.367464115 L8.6507177,5.48899522 L8.6507177,2.25837321 C8.6507177,2.17416268 8.58181818,2.10526316 8.49760766,2.10526316 L3.90430622,2.10526316 C3.82009569,2.10526316 3.75119617,2.17416268 3.75119617,2.25837321 L3.75119617,9.31674641 L0.482296651,12.0038278 C0.244976077,12.1952153 0.0918660287,12.4784689 0.0765550239,12.784689 C0.0612440191,13.0909091 0.176076555,13.3894737 0.390430622,13.6038278 C0.589473684,13.8028708 0.857416268,13.9177033 1.14832536,13.9177033 C1.39330144,13.9177033 1.63062201,13.8334928 1.82200957,13.6803828 L15.9004785,2.35023923 C15.938756,2.31961722 15.969378,2.31961722 16,2.31961722 C16.030622,2.31961722 16.061244,2.32727273 16.0995215,2.35023923 L30.1779904,13.6344498 C30.369378,13.7875598 30.6066986,13.8717703 30.8516746,13.8717703 C31.1349282,13.8717703 31.4028708,13.7645933 31.6095694,13.5578947 C31.8315789,13.3435407 31.9464115,13.0449761 31.9311005,12.738756 C31.908134,12.4325359 31.7626794,12.1492823 31.5177033,11.9578947 Z" id="Shape"></path>
                </g>
            </g>
        </g>
    </g>
</svg>