
<svg width="38px" height="38px" viewBox="0 0 38 38" version="1.1" xmlns="http://www.w3.org/2000/svg" xmlns:xlink="http://www.w3.org/1999/xlink">
    <!-- Generator: Sketch 50.2 (55047) - http://www.bohemiancoding.com/sketch -->
    <desc>Created with Sketch.</desc>
    <defs></defs>
    <g id="Symbols" stroke="none" stroke-width="1" fill="none" fill-rule="evenodd">
        <g id="Icon-Row---Blue" transform="translate(-168.000000, -17.000000)" fill="#1A97B4" fill-rule="nonzero">
            <g id="Icon-Row">
                <g id="logo-linkedin" transform="translate(168.000000, 17.000000)">
                    <path d="M34.9520833,0 L3.24583333,0 C1.5140625,0 0,1.246875 0,2.95885417 L0,34.734375 C0,36.45625 1.5140625,37.9901042 3.24583333,37.9901042 L34.9421875,37.9901042 C36.6838542,37.9901042 37.9901042,36.4463542 37.9901042,34.734375 L37.9901042,2.95885417 C38,1.246875 36.6838542,0 34.9520833,0 Z M11.7760417,31.6666667 L6.33333333,31.6666667 L6.33333333,14.7447917 L11.7760417,14.7447917 L11.7760417,31.6666667 Z M9.24270833,12.171875 L9.203125,12.171875 C7.46145833,12.171875 6.33333333,10.8755208 6.33333333,9.25260417 C6.33333333,7.6 7.49114583,6.33333333 9.27239583,6.33333333 C11.0536458,6.33333333 12.1421875,7.59010417 12.1817708,9.25260417 C12.1817708,10.8755208 11.0536458,12.171875 9.24270833,12.171875 Z M31.6666667,31.6666667 L26.2239583,31.6666667 L26.2239583,22.4140625 C26.2239583,20.1973958 25.4322917,18.6833333 23.4630208,18.6833333 C21.9588542,18.6833333 21.0682292,19.7026042 20.6723958,20.6921875 C20.5239583,21.0484375 20.484375,21.5333333 20.484375,22.028125 L20.484375,31.6666667 L15.0416667,31.6666667 L15.0416667,14.7447917 L20.484375,14.7447917 L20.484375,17.1 C21.2760417,15.971875 22.5130208,14.3489583 25.3927083,14.3489583 C28.9651042,14.3489583 31.6666667,16.7041667 31.6666667,21.7807292 L31.6666667,31.6666667 Z" id="Shape"></path>
                </g>
            </g>
        </g>
    </g>
</svg>