
<svg width="41px" height="39px" viewBox="0 0 41 39" version="1.1" xmlns="http://www.w3.org/2000/svg" xmlns:xlink="http://www.w3.org/1999/xlink">
    <!-- Generator: Sketch 50.2 (55047) - http://www.bohemiancoding.com/sketch -->
    <desc>Created with Sketch.</desc>
    <defs></defs>
    <g id="Projects" stroke="none" stroke-width="1" fill="none" fill-rule="evenodd">
        <g id="Desktop-HD" transform="translate(-937.000000, -824.000000)" fill="#1A97B4" fill-rule="nonzero">
            <g id="Bottom-Navigation" transform="translate(462.000000, 824.000000)">
                <g id="Right-Arrow" transform="translate(495.500000, 19.500000) scale(-1, 1) translate(-495.500000, -19.500000) translate(475.000000, 0.000000)">
                    <path d="M37.4463758,15.7403977 L12.5131946,15.7403977 L22.1835406,6.41188432 C23.5700119,4.94328965 23.5700119,2.57004067 22.1835406,1.101446 C20.7970693,-0.367148667 18.5484226,-0.367148667 17.1503003,1.101446 L1.04859173,16.8447808 C0.349530576,17.5262088 0,18.4543606 0,19.4765025 L0,19.5234975 C0,20.5456394 0.349530576,21.4737912 1.04859173,22.1552192 L17.1386493,37.898554 C18.5367716,39.3671487 20.7854183,39.3671487 22.1718896,37.898554 C23.5583609,36.4299593 23.5583609,34.0567103 22.1718896,32.5881157 L12.5015436,23.2596023 L37.4347247,23.2596023 C39.403747,23.2596023 40.9999366,21.57953 40.9999366,19.5 C41.0115876,17.3852237 39.415398,15.7403977 37.4463758,15.7403977 Z" id="Shape"></path>
                </g>
            </g>
        </g>
    </g>
</svg>