
<svg width="32px" height="32px" viewBox="0 0 32 32" version="1.1" xmlns="http://www.w3.org/2000/svg" xmlns:xlink="http://www.w3.org/1999/xlink">
    <!-- Generator: Sketch 50.2 (55047) - http://www.bohemiancoding.com/sketch -->
    <desc>Created with Sketch.</desc>
    <defs></defs>
    <g id="Symbols" stroke="none" stroke-width="1" fill="none" fill-rule="evenodd">
        <g id="Mobile-Nav-Links" transform="translate(0.000000, -188.000000)" fill="#FFECD4" fill-rule="nonzero">
            <g id="Icons" transform="translate(0.000000, 5.000000)">
                <g id="ios-contact" transform="translate(0.000000, 183.000000)">
                    <path d="M16,0 C7.73076923,0 0.930769231,6.26923077 0.0923076923,14.3153846 C0.0307692308,14.8692308 0,15.4307692 0,16 C0,16.5692308 0.0307692308,17.1307692 0.0923076923,17.6846154 C0.930769231,25.7307692 7.73076923,32 16,32 C24.8384615,32 32,24.8384615 32,16 C32,7.16153846 24.8384615,0 16,0 Z M26.4461538,25.0846154 C24.7,24.4230769 21.8692308,23.4538462 20.1076923,22.9307692 C19.9230769,22.8769231 19.9,22.8615385 19.9,22.1076923 C19.9,21.4846154 20.1538462,20.8538462 20.4076923,20.3153846 C20.6846154,19.7384615 21,18.7615385 21.1153846,17.8846154 C21.4384615,17.5076923 21.8846154,16.7692308 22.1615385,15.3538462 C22.4076923,14.1076923 22.2923077,13.6538462 22.1307692,13.2307692 C22.1153846,13.1846154 22.0923077,13.1384615 22.0846154,13.1 C22.0230769,12.8076923 22.1076923,11.2923077 22.3230769,10.1153846 C22.4692308,9.30769231 22.2846154,7.59230769 21.1769231,6.16923077 C20.4769231,5.26923077 19.1307692,4.16923077 16.6769231,4.01538462 L15.3307692,4.01538462 C12.9153846,4.16923077 11.5769231,5.26923077 10.8692308,6.16923077 C9.75384615,7.59230769 9.56923077,9.30769231 9.71538462,10.1153846 C9.93076923,11.2923077 10.0153846,12.8076923 9.95384615,13.1 C9.93846154,13.1538462 9.92307692,13.1923077 9.90769231,13.2384615 C9.74615385,13.6615385 9.62307692,14.1153846 9.87692308,15.3615385 C10.1615385,16.7769231 10.6,17.5153846 10.9230769,17.8923077 C11.0384615,18.7692308 11.3615385,19.7384615 11.6307692,20.3230769 C11.8307692,20.7461538 11.9230769,21.3230769 11.9230769,22.1384615 C11.9230769,22.9 11.8923077,22.9076923 11.7230769,22.9615385 C9.9,23.5 7.19230769,24.4538462 5.56923077,25.1 C3.35384615,22.5692308 2.15384615,19.3769231 2.15384615,16 C2.15384615,12.3 3.59230769,8.82307692 6.20769231,6.20769231 C8.82307692,3.59230769 12.3,2.15384615 16,2.15384615 C19.7,2.15384615 23.1769231,3.59230769 25.7923077,6.20769231 C28.4076923,8.82307692 29.8461538,12.3 29.8461538,16 C29.8461538,19.3769231 28.6461538,22.5692308 26.4461538,25.0846154 Z" id="Shape"></path>
                </g>
            </g>
        </g>
    </g>
</svg>