
<svg width="32px" height="20px" viewBox="0 0 32 20" version="1.1" xmlns="http://www.w3.org/2000/svg" xmlns:xlink="http://www.w3.org/1999/xlink">
    <!-- Generator: Sketch 50.2 (55047) - http://www.bohemiancoding.com/sketch -->
    <desc>Created with Sketch.</desc>
    <defs></defs>
    <g id="Symbols" stroke="none" stroke-width="1" fill="none" fill-rule="evenodd">
        <g id="Mobile-Nav-Links" transform="translate(-2.000000, -130.000000)" fill="#FFECD4" fill-rule="nonzero">
            <g id="Icons" transform="translate(0.000000, 5.000000)">
                <g id="md-information-circle-outline" transform="translate(0.000000, 61.000000)">
                    <g id="ios-code-working" transform="translate(2.000000, 64.000000)">
                        <path d="M31.758961,9.19272727 L22.2753247,0.141298701 C22.1755844,0.0498701299 22.0509091,0 21.9345455,0 C21.8181818,0 21.6851948,0.0498701299 21.5937662,0.141298701 L20.4467532,1.23844156 C20.347013,1.32987013 20.2888312,1.46285714 20.2888312,1.59584416 C20.2888312,1.72883117 20.347013,1.86181818 20.4467532,1.95324675 L28.4093506,9.55844156 L20.4467532,17.1636364 C20.347013,17.2550649 20.2888312,17.3880519 20.2888312,17.521039 C20.2888312,17.654026 20.347013,17.787013 20.4467532,17.8784416 L21.5937662,18.9755844 C21.6935065,19.067013 21.8098701,19.1168831 21.9345455,19.1168831 C22.0592208,19.1168831 22.1838961,19.067013 22.2753247,18.9755844 L31.7672727,9.91584416 C31.867013,9.82441558 31.9251948,9.69142857 31.9251948,9.55844156 C31.9168831,9.41714286 31.8587013,9.29246753 31.758961,9.19272727 Z M3.51584416,9.55844156 L11.4784416,1.95324675 C11.5781818,1.86181818 11.6363636,1.72883117 11.6363636,1.59584416 C11.6363636,1.46285714 11.5781818,1.32987013 11.4784416,1.23844156 L10.3314286,0.141298701 C10.2316883,0.0498701299 10.107013,0 9.99064935,0 C9.87428571,0 9.7412987,0.0498701299 9.64987013,0.141298701 L0.157922078,9.20103896 C0.0581818182,9.29246753 0,9.42545455 0,9.55844156 C0,9.69142857 0.0581818182,9.82441558 0.157922078,9.91584416 L9.64987013,18.9755844 C9.74961039,19.067013 9.87428571,19.1168831 9.99064935,19.1168831 C10.1153247,19.1168831 10.24,19.067013 10.3314286,18.9755844 L11.4784416,17.8784416 C11.5781818,17.787013 11.6363636,17.654026 11.6363636,17.521039 C11.6363636,17.3880519 11.5781818,17.2550649 11.4784416,17.1636364 L3.51584416,9.55844156 Z" id="Shape"></path>
                        <circle id="Oval" cx="15.9584416" cy="9.55844156" r="1.82857143"></circle>
                        <circle id="Oval" cx="10.638961" cy="9.55844156" r="1.82857143"></circle>
                        <ellipse id="Oval" cx="21.2793507" cy="9.55844156" rx="1.83000004" ry="1.82857143"></ellipse>
                    </g>
                </g>
            </g>
        </g>
    </g>
</svg>